<svg width="30" height="23" viewBox="0 0 30 23" fill="none" xmlns="http://www.w3.org/2000/svg">
<path d="M27.1875 0.5C28.7109 0.5 30 1.78906 30 3.3125V20.1875C30 21.7695 28.7109 23 27.1875 23H2.8125C1.23047 23 0 21.7695 0 20.1875V3.3125C0 1.78906 1.23047 0.5 2.8125 0.5H27.1875ZM27.1875 3.3125H2.8125V5.71484C4.10156 6.82812 6.21094 8.46875 10.6641 11.9844C11.6602 12.7461 13.5938 14.6211 15 14.5625C16.3477 14.6211 18.2812 12.7461 19.2773 11.9844C23.7305 8.46875 25.8398 6.82812 27.1875 5.71484V3.3125ZM2.8125 20.1875H27.1875V9.34766C25.8398 10.4023 23.9062 11.9258 21.0352 14.2109C19.6875 15.207 17.4609 17.4336 15 17.375C12.4805 17.4336 10.1953 15.207 8.90625 14.2109C6.03516 11.9258 4.10156 10.4023 2.8125 9.34766V20.1875Z" fill="white"/>
</svg>
