<svg width="28" height="26" viewBox="0 0 28 26" fill="none" xmlns="http://www.w3.org/2000/svg">
<path d="M3.5 4.6113C3.5 3.84571 4.19037 3.22525 5.04219 3.22525H22.9578C23.8096 3.22525 24.5 3.84571 24.5 4.6113V21.1906C24.5 21.9562 23.8096 22.5767 22.9578 22.5767H5.04219C4.19037 22.5767 3.5 21.9562 3.5 21.1906V4.6113ZM9.98769 19.4248V10.6864H6.83637V19.4248H9.98769ZM8.41269 9.4927C9.51125 9.4927 10.1951 8.82265 10.1951 7.98329C10.1754 7.12577 9.51256 6.47387 8.43369 6.47387C7.35481 6.47387 6.65 7.12698 6.65 7.98329C6.65 8.82265 7.33381 9.4927 8.39169 9.4927H8.41269ZM14.8544 19.4248V14.5446C14.8544 14.2834 14.8754 14.0221 14.9594 13.8359C15.1865 13.3146 15.7049 12.774 16.5764 12.774C17.717 12.774 18.1724 13.5746 18.1724 14.7502V19.4248H21.3237V14.4128C21.3237 11.7278 19.7697 10.4796 17.696 10.4796C16.0239 10.4796 15.2744 11.3262 14.8544 11.9225V11.9528H14.8334C14.8404 11.9427 14.8474 11.9326 14.8544 11.9225V10.6864H11.7044C11.7438 11.5065 11.7044 19.4248 11.7044 19.4248H14.8544Z" fill="#748CA3"/>
</svg>
